<svg width="88" height="18" viewBox="0 0 88 18" fill="none" xmlns="http://www.w3.org/2000/svg">
<path d="M15.7991 0.0815252C15.8753 2.82304 15.8943 15.5642 15.7991 17.9112C15.152 17.9901 13.3627 17.9704 12.6393 17.9112C12.5632 15.6431 12.5822 2.34969 12.6393 0.0815252C13.1913 -0.0368133 15.0758 -0.0170904 15.7991 0.0815252ZM9.76502 13.7497C10.4122 13.7694 10.9642 13.7694 11.383 13.7891C11.4401 14.6372 11.4401 15.6036 11.383 16.6095C8.8894 16.7081 2.28421 16.7081 0.0571054 16.6095C-0.0190351 15.722 -0.0190351 14.6372 0.0571054 13.7891C0.437808 13.7694 0.970791 13.7694 1.59895 13.7694C1.57992 10.732 1.56088 6.41265 1.59895 3.47391C1.04693 3.45418 0.571054 3.45418 0.190351 3.43446C0.133246 2.58636 0.133246 1.4227 0.190351 0.61405C3.50246 0.55488 9.5366 0.515434 11.2307 0.61405C11.2688 1.4227 11.2688 2.46802 11.2307 3.43446C10.831 3.45418 10.3361 3.45418 9.76502 3.47391C9.80309 6.41265 9.78405 10.732 9.76502 13.7497ZM4.64457 13.7299H6.7194C6.70036 10.7123 6.70036 6.43238 6.7194 3.49363H4.64457C4.6636 6.43238 4.6636 10.7123 4.64457 13.7299Z" fill="black"/>
<path d="M28.8558 12.6452C28.8177 11.5998 28.8177 4.63757 28.8558 3.69086C24.1922 3.69086 19.4143 3.75003 18.0628 3.69086C17.9867 2.86249 17.9867 1.60021 18.0628 0.771836C19.5285 0.712666 30.4737 0.67322 32.0917 0.771836C32.2059 2.36941 32.2059 11.5407 32.0917 12.6452C31.4445 12.7241 29.6172 12.7241 28.8558 12.6452ZM17.0349 17.4576C16.9588 16.6884 16.9588 15.4853 17.0349 14.6175C21.2417 14.5386 31.7301 14.578 33.4813 14.6175C33.5574 15.4261 33.5574 16.5503 33.4813 17.4576C31.9204 17.5957 19.243 17.5562 17.0349 17.4576Z" fill="black"/>
<path d="M51.1063 6.51127C51.1825 7.33964 51.1825 8.79915 51.1063 9.62753C50.8398 9.66697 50.2688 9.6867 49.4883 9.6867C49.4883 13.3158 49.4693 16.787 49.4312 17.9112C48.784 17.9901 46.9947 17.9704 46.2714 17.9112C46.1762 15.6431 46.2143 2.34969 46.2714 0.0815252C46.8044 -0.0368133 48.6889 -0.0170904 49.4312 0.0815252C49.4693 1.12685 49.4693 3.65141 49.4883 6.47182C50.1736 6.47182 50.7256 6.49155 51.1063 6.51127ZM34.7742 0.61405C35.783 0.515434 43.2258 0.495712 44.5582 0.61405C44.6725 2.4483 44.6725 16.0375 44.5582 16.6095C43.4352 16.7279 36.1066 16.7476 34.7742 16.6095C34.6409 14.7555 34.679 2.29052 34.7742 0.61405ZM41.3794 13.6905C41.4365 10.5151 41.4365 6.49155 41.3794 3.51335C40.4276 3.45418 39.0761 3.47391 37.9721 3.51335C37.934 6.15625 37.915 10.6334 37.9721 13.6905C38.7335 13.7102 40.6751 13.7102 41.3794 13.6905Z" fill="black"/>
<path d="M70.5389 10.4953C68.9781 10.5742 57.7854 10.5545 55.939 10.4953C55.8248 8.12857 55.8438 2.90193 55.939 0.574603C57.7664 0.475988 68.2167 0.515435 70.1582 0.574603C70.2344 1.40298 70.2344 2.54692 70.1582 3.37529C68.8829 3.41474 60.6026 3.41474 59.2131 3.37529C59.2131 3.5528 59.2131 3.82892 59.194 4.16422C61.6305 4.14449 68.2928 4.16422 69.5872 4.16422C69.6824 5.01231 69.6443 6.09708 69.5872 6.94518C68.3689 6.98462 61.6305 6.9649 59.194 6.94518C59.2131 7.26075 59.2131 7.51715 59.2131 7.69466C60.6978 7.69466 69.1494 7.67493 70.5389 7.69466C70.5961 8.54275 70.5961 9.78531 70.5389 10.4953ZM71.3575 11.4815C71.4336 12.2901 71.4336 13.3946 71.3575 14.3216C70.9768 14.3414 69.9679 14.3611 68.6164 14.3808C68.6164 15.7023 68.6164 17.2407 68.5974 17.9704C67.9121 18.0099 66.1989 18.0099 65.3614 17.9704C65.3424 17.359 65.3233 15.7811 65.3233 14.4005C63.8957 14.4005 62.3729 14.4005 60.9452 14.3808C60.9452 15.7023 60.9452 17.2407 60.9262 17.9704C60.2409 18.0099 58.5278 18.0099 57.6902 17.9704C57.6712 17.359 57.6522 15.7417 57.6522 14.3611C56.3959 14.3611 55.406 14.3414 54.9111 14.3216C54.835 13.5524 54.835 12.3296 54.9111 11.4815C59.1179 11.4026 69.6062 11.4421 71.3575 11.4815Z" fill="black"/>
<path d="M87.9356 0.0815252C88.0117 2.82304 88.0307 15.5642 87.9356 17.9112C87.2884 17.9901 85.4991 17.9704 84.7757 17.9112C84.7377 16.8462 84.7186 13.3552 84.7186 9.70642C83.9382 9.70642 83.1387 9.6867 82.4344 9.66697C82.3392 8.8386 82.3392 7.31992 82.4344 6.49155C83.272 6.4521 84.0334 6.4521 84.7377 6.4521C84.7377 3.51335 84.7567 0.969067 84.7757 0.0815252C85.3277 -0.0368133 87.2122 -0.0170904 87.9356 0.0815252ZM75.9054 13.6905C77.5234 13.651 81.3875 13.651 82.9103 13.6905C82.9864 14.5189 82.9864 15.7811 82.9103 16.6095C81.2162 16.7081 74.7062 16.7279 72.6504 16.6095C72.5361 14.2822 72.5552 2.90193 72.6504 0.61405C74.2874 0.515434 80.3596 0.55488 81.7682 0.61405C81.8443 1.36353 81.8443 2.72443 81.7682 3.5528C80.7593 3.59224 77.0475 3.59224 75.9054 3.5528C75.9054 4.69674 75.9244 5.89985 75.9244 7.14241C77.5995 7.12269 79.9408 7.14241 81.2923 7.14241C81.3875 7.97078 81.3494 9.23306 81.2923 10.0614C79.9789 10.1009 77.5995 10.0812 75.9244 10.0614C75.9244 11.2645 75.9054 12.4677 75.9054 13.6905Z" fill="black"/>
</svg>
